<svg width="110" height="100" viewBox="0 0 110 100" fill="none" xmlns="http://www.w3.org/2000/svg">
<rect width="110" height="100" rx="3" fill="#FF2618"/>
<path d="M23.056 59.8182H25.3131L28.3358 67.196H28.4552L31.4779 59.8182H33.735V70H31.9651V63.005H31.8706L29.0567 69.9702H27.7343L24.9204 62.9901H24.8259V70H23.056V59.8182ZM44.8415 64.9091C44.8415 66.0062 44.636 66.9458 44.2251 67.728C43.8174 68.5069 43.2606 69.1035 42.5546 69.5178C41.8519 69.9321 41.0548 70.1392 40.1633 70.1392C39.2717 70.1392 38.4729 69.9321 37.767 69.5178C37.0643 69.1001 36.5075 68.5019 36.0965 67.723C35.6888 66.9408 35.485 66.0028 35.485 64.9091C35.485 63.812 35.6888 62.8741 36.0965 62.0952C36.5075 61.313 37.0643 60.7147 37.767 60.3004C38.4729 59.8861 39.2717 59.679 40.1633 59.679C41.0548 59.679 41.8519 59.8861 42.5546 60.3004C43.2606 60.7147 43.8174 61.313 44.2251 62.0952C44.636 62.8741 44.8415 63.812 44.8415 64.9091ZM42.9871 64.9091C42.9871 64.1368 42.8662 63.4856 42.6242 62.9553C42.3856 62.4216 42.0541 62.0189 41.6299 61.7472C41.2056 61.4721 40.7168 61.3345 40.1633 61.3345C39.6098 61.3345 39.1209 61.4721 38.6966 61.7472C38.2724 62.0189 37.9393 62.4216 37.6974 62.9553C37.4587 63.4856 37.3394 64.1368 37.3394 64.9091C37.3394 65.6813 37.4587 66.3343 37.6974 66.8679C37.9393 67.3982 38.2724 67.8009 38.6966 68.076C39.1209 68.3478 39.6098 68.4837 40.1633 68.4837C40.7168 68.4837 41.2056 68.3478 41.6299 68.076C42.0541 67.8009 42.3856 67.3982 42.6242 66.8679C42.8662 66.3343 42.9871 65.6813 42.9871 64.9091ZM54.9525 59.8182V70H53.3119L48.5143 63.0646H48.4298V70H46.5853V59.8182H48.2359L53.0285 66.7585H53.118V59.8182H54.9525ZM56.5148 61.3643V59.8182H64.6384V61.3643H61.4914V70H59.6618V61.3643H56.5148ZM66.2045 70V59.8182H68.0489V64.1286H72.767V59.8182H74.6164V70H72.767V65.6747H68.0489V70H66.2045ZM75.9264 59.8182H78.0095L80.5003 64.3224H80.5997L83.0905 59.8182H85.1736L81.4697 66.2017V70H79.6302V66.2017L75.9264 59.8182ZM28.6 87V76.8182H32.4181C33.2003 76.8182 33.8566 76.9541 34.3869 77.2259C34.9205 77.4976 35.3232 77.8788 35.595 78.3693C35.8701 78.8565 36.0076 79.425 36.0076 80.0746C36.0076 80.7275 35.8684 81.2943 35.59 81.7749C35.3149 82.2521 34.9089 82.6217 34.372 82.8835C33.8351 83.142 33.1755 83.2713 32.3933 83.2713H29.6738V81.7401H32.1447C32.6021 81.7401 32.9766 81.6771 33.2683 81.5511C33.56 81.4219 33.7754 81.2346 33.9146 80.9893C34.0571 80.7408 34.1284 80.4358 34.1284 80.0746C34.1284 79.7133 34.0571 79.4051 33.9146 79.1499C33.7721 78.8913 33.555 78.6958 33.2633 78.5632C32.9717 78.4273 32.5955 78.3594 32.1348 78.3594H30.4444V87H28.6ZM33.8599 82.3864L36.3805 87H34.3223L31.8464 82.3864H33.8599ZM37.7054 87V76.8182H44.3276V78.3643H39.5499V81.1286H43.9846V82.6747H39.5499V85.4538H44.3674V87H37.7054ZM46.2093 87V76.8182H50.0275C50.8097 76.8182 51.466 76.964 51.9963 77.2557C52.5299 77.5473 52.9326 77.9484 53.2044 78.4588C53.4795 78.9659 53.617 79.5426 53.617 80.1889C53.617 80.8419 53.4795 81.4219 53.2044 81.929C52.9293 82.4361 52.5233 82.8355 51.9863 83.1271C51.4494 83.4155 50.7882 83.5597 50.0027 83.5597H47.4721V82.0433H49.7541C50.2115 82.0433 50.586 81.9638 50.8777 81.8047C51.1693 81.6456 51.3848 81.4268 51.524 81.1484C51.6665 80.87 51.7377 80.5502 51.7377 80.1889C51.7377 79.8277 51.6665 79.5095 51.524 79.2344C51.3848 78.9593 51.1677 78.7455 50.8727 78.593C50.581 78.4373 50.2048 78.3594 49.7441 78.3594H48.0538V87H46.2093ZM64.3171 81.9091C64.3171 83.0062 64.1116 83.9458 63.7006 84.728C63.293 85.5069 62.7362 86.1035 62.0302 86.5178C61.3275 86.9321 60.5304 87.1392 59.6388 87.1392C58.7473 87.1392 57.9485 86.9321 57.2425 86.5178C56.5399 86.1001 55.9831 85.5019 55.5721 84.723C55.1644 83.9408 54.9606 83.0028 54.9606 81.9091C54.9606 80.812 55.1644 79.8741 55.5721 79.0952C55.9831 78.313 56.5399 77.7147 57.2425 77.3004C57.9485 76.8861 58.7473 76.679 59.6388 76.679C60.5304 76.679 61.3275 76.8861 62.0302 77.3004C62.7362 77.7147 63.293 78.313 63.7006 79.0952C64.1116 79.8741 64.3171 80.812 64.3171 81.9091ZM62.4627 81.9091C62.4627 81.1368 62.3417 80.4856 62.0998 79.9553C61.8612 79.4216 61.5297 79.0189 61.1055 78.7472C60.6812 78.4721 60.1924 78.3345 59.6388 78.3345C59.0853 78.3345 58.5965 78.4721 58.1722 78.7472C57.748 79.0189 57.4149 79.4216 57.1729 79.9553C56.9343 80.4856 56.815 81.1368 56.815 81.9091C56.815 82.6813 56.9343 83.3343 57.1729 83.8679C57.4149 84.3982 57.748 84.8009 58.1722 85.076C58.5965 85.3478 59.0853 85.4837 59.6388 85.4837C60.1924 85.4837 60.6812 85.3478 61.1055 85.076C61.5297 84.8009 61.8612 84.3982 62.0998 83.8679C62.3417 83.3343 62.4627 82.6813 62.4627 81.9091ZM66.0609 87V76.8182H69.8791C70.6613 76.8182 71.3175 76.9541 71.8478 77.2259C72.3815 77.4976 72.7842 77.8788 73.0559 78.3693C73.331 78.8565 73.4686 79.425 73.4686 80.0746C73.4686 80.7275 73.3294 81.2943 73.051 81.7749C72.7759 82.2521 72.3699 82.6217 71.8329 82.8835C71.296 83.142 70.6364 83.2713 69.8542 83.2713H67.1348V81.7401H69.6056C70.063 81.7401 70.4376 81.6771 70.7292 81.5511C71.0209 81.4219 71.2363 81.2346 71.3755 80.9893C71.5181 80.7408 71.5893 80.4358 71.5893 80.0746C71.5893 79.7133 71.5181 79.4051 71.3755 79.1499C71.233 78.8913 71.0159 78.6958 70.7243 78.5632C70.4326 78.4273 70.0564 78.3594 69.5957 78.3594H67.9054V87H66.0609ZM71.3208 82.3864L73.8414 87H71.7832L69.3074 82.3864H71.3208ZM74.7189 78.3643V76.8182H82.8425V78.3643H79.6955V87H77.8659V78.3643H74.7189Z" fill="white" fill-opacity="0.9"/>
<path d="M80 50V18C80 15.7909 78.2091 14 76 14H31C28.7909 14 27 15.7909 27 18V50" stroke="white"/>
<rect x="32" y="21" width="43" height="2" fill="#FFE9E8"/>
<rect x="32" y="28" width="43" height="2" fill="#FFE9E8"/>
<rect x="32" y="35" width="29" height="2" fill="#FFE9E8"/>
</svg>
